<?xml version="1.0" encoding="UTF-8" standalone="no"?>
<!DOCTYPE svg PUBLIC "-//W3C//DTD SVG 20010904//EN" "http://www.w3.org/TR/2001/REC-SVG-20010904/DTD/svg10.dtd">
<svg version="1.0" xmlns="http://www.w3.org/2000/svg" width="499.000000pt" height="498.000000pt" viewBox="0 0 499.000000 498.000000" preserveAspectRatio="xMidYMid meet">
<metadata>
Created by potrace 1.15, written by Peter Selinger 2001-2017
</metadata>
<g transform="translate(0.000000,498.000000) scale(0.100000,-0.100000)" fill="#000000" stroke="none">
<path d="M2365 4149 c-130 -17 -298 -81 -371 -142 -16 -13 -54 -32 -84 -40 -111 -32 -224 -127 -289 -241 -73 -129 -90 -257 -72 -563 l11 -193 -24 -35 c-82 -120 5 -460 135 -529 33 -18 38 -27 68 -122 17 -57 51 -151 76 -209 45 -105 45 -106 51 -253 5 -101 3 -161 -6 -191 -18 -66 -94 -141 -199 -195 -98 -51 -183 -73 -523 -140 -247 -49 -268 -58 -343 -154 -126 -159 -247 -491 -340 -932 -20 -91 -38 -175 -40 -187 l-5 -23 2084 0 2084 0 -28 132 c-87 408 -197 746 -301 921 -46 78 -128 171 -169 192 -14 7 -115 30 -225 50 -351 64 -446 94 -561 181 -109 82 -137 139 -154 309 l-11 120 51 109 c28 59 71 167 95 240 32 96 50 134 65 142 68 36 134 141 165 264 23 88 22 204 -1 255 -15 34 -18 71 -19 230 -1 105 -7 224 -14 265 -34 209 -104 382 -192 475 -179 190 -581 305 -914 264z m445 -52 c398 -105 551 -257 625 -627 32 -156 32 -520 0 -520 -31 0 -73 -51 -95 -116 -32 -97 -57 -148 -63 -132 -3 7 -6 0 -6 -15 -2 -47 16 -21 54 81 20 53 41 107 45 119 11 28 53 56 77 51 10 -2 26 -19 36 -38 15 -29 18 -51 13 -121 -8 -152 -81 -312 -160 -354 -36 -19 -40 -26 -81 -150 -77 -236 -166 -387 -319 -543 -110 -113 -165 -156 -235 -183 -25 -10 -39 -18 -30 -19 9 0 44 14 79 31 72 37 253 209 313 298 42 64 41 66 56 -100 6 -69 17 -124 31 -157 28 -65 121 -154 210 -201 36 -19 66 -35 68 -37 7 -5 -29 -128 -58 -201 -71 -177 -193 -346 -377 -523 -106 -102 -278 -239 -287 -229 -2 2 -16 77 -31 165 -22 138 -25 168 -15 202 12 39 13 39 98 60 46 12 87 24 91 27 7 8 -40 93 -95 171 -40 56 -46 61 -101 75 -35 8 -109 14 -188 14 -131 0 -185 -7 -185 -25 0 -5 -20 -37 -44 -72 -24 -35 -58 -89 -76 -121 -37 -67 -35 -71 39 -82 106 -14 110 -16 132 -54 21 -35 21 -39 9 -191 -7 -85 -15 -172 -19 -193 l-6 -39 -75 50 c-344 225 -588 561 -650 895 -7 37 -11 69 -9 71 2 2 42 23 89 47 54 27 105 64 141 99 75 75 83 106 77 307 -4 134 -3 154 9 137 175 -253 358 -413 488 -429 34 -5 32 -3 -14 10 -30 8 -76 27 -103 42 -69 38 -206 169 -283 271 -85 113 -183 308 -225 449 -30 99 -37 113 -62 124 -88 36 -168 215 -168 375 0 82 14 130 41 145 16 8 26 4 53 -23 18 -18 41 -55 51 -83 26 -73 60 -147 79 -170 14 -18 15 -10 14 115 l-2 135 -6 -120 c-5 -117 -5 -119 -21 -90 -9 17 -29 64 -44 105 -20 54 -40 87 -71 117 l-43 41 -10 225 c-12 234 -7 320 25 414 46 138 138 249 257 308 38 19 77 35 87 35 9 0 35 13 58 29 160 116 291 152 542 147 148 -3 190 -7 270 -29z"/>
<path d="M2170 3386 c-137 -57 -240 -118 -289 -172 -48 -53 -87 -132 -97 -199 -3 -16 4 -5 14 25 53 155 99 203 278 291 178 87 167 88 266 -13 104 -107 448 -365 448 -338 0 35 -41 130 -76 175 -19 25 -31 45 -28 45 10 0 65 -41 169 -125 119 -97 249 -195 258 -195 4 0 6 35 5 78 l-2 77 -3 -67 c-2 -38 -7 -68 -11 -68 -4 0 -59 40 -122 90 -214 167 -310 239 -331 250 -13 7 1 -16 35 -62 50 -65 104 -173 92 -185 -10 -10 -310 220 -397 305 -53 52 -103 98 -110 103 -21 13 -39 10 -99 -15z"/>
</g>
</svg>